<?xml version="1.0" encoding="iso-8859-1"?>
<!-- Generator: Adobe Illustrator 19.0.0, SVG Export Plug-In . SVG Version: 6.00 Build 0)  -->
<svg version="1.1" id="Capa_1" xmlns="http://www.w3.org/2000/svg" xmlns:xlink="http://www.w3.org/1999/xlink" x="0px" y="0px"
	 viewBox="0 0 512 512" style="enable-background:new 0 0 512 512;" xml:space="preserve">
<path style="fill:#25D8A1;" d="M349.624,19.179v83.491c0,6.038-4.895,10.933-10.933,10.933h-165.37
	c-6.038,0-10.933-4.895-10.933-10.933V19.179c0-6.038,4.895-10.933,10.933-10.933H338.69
	C344.729,8.245,349.624,13.14,349.624,19.179z"/>
<path style="fill:#0DB77E;" d="M248.516,109.902v3.702h-75.195c-6.038,0-10.933-4.895-10.933-10.933V90.883
	c2.22-4.99,5.37-9.59,9.35-13.57c8.455-8.465,19.697-13.141,31.651-13.18C228.211,64.055,248.516,85.079,248.516,109.902z"/>
<g>
	<rect x="7.512" y="8.245" style="fill:#F44D4D;" width="105.357" height="105.357"/>
	<rect x="399.14" y="8.245" style="fill:#F44D4D;" width="105.357" height="105.357"/>
</g>
<path style="fill:#FFCFAE;" d="M365.494,259.082v-1.965c0-10.68-8.658-19.339-19.339-19.339h-0.129
	c-7.477,0-13.957,4.246-17.176,10.455l-2.159-0.639v-16.037c0-12.854-10.426-23.269-23.279-23.269
	c-6.422,0-12.245,2.606-16.454,6.816c-4.21,4.21-6.816,10.032-6.816,16.454v-23.842c0-12.91-10.472-23.382-23.382-23.382h-1.866
	c-12.91,0-23.382,10.473-23.382,23.382v-98.591c0-15.46-12.526-27.985-27.976-27.985c-7.725,0-14.72,3.132-19.783,8.194
	c-5.063,5.063-8.194,12.066-8.194,19.791v162.906h-9.019c-12.61,0-22.838,10.229-22.838,22.838v17.663
	c0,33.479,15.554,65.177,42.339,85.26c17.064,12.788,33.01,29.026,34.032,45.499v26.541h145.421V259.083L365.494,259.082z"/>
<path style="fill:#FFBE92;" d="M365.501,259.085v210.75h-18.174V257.121c0-7.424-4.176-13.871-10.316-17.111
	c2.687-1.42,5.757-2.228,9.015-2.228h0.128c10.681,0,19.339,8.657,19.339,19.338v1.965h0.008V259.085z"/>
<rect x="207.285" y="453.929" style="fill:#A4E7FF;" width="172.506" height="49.869"/>
<rect x="207.285" y="486.518" style="fill:#73D7FF;" width="172.506" height="17.275"/>
<path d="M3.349,119.835c2.002,1.339,4.121,1.263,6.365,1.263c2.535,0,103.553,0.129,104.988-0.236
	c3.362-0.855,5.599-3.879,5.663-7.307c0.007-0.389,0.072-100.858,0-105.223c-0.074-4.456-3.573-7.568-7.914-7.587
	c-1.71-0.007-99.196,0-104.388,0C3.712,0.745,0.1,3.75,0.012,8.28c-0.024,1.222-0.004,104.773,0,105.204
	C0.038,116.019,1.221,118.412,3.349,119.835z M70.795,60.922l34.571-34.571v69.142L70.795,60.922z M94.76,106.099H25.618
	l34.571-34.571L94.76,106.099z M60.189,50.315l-34.571-34.57H94.76L60.189,50.315z M49.582,60.922l-34.57,34.571V26.351
	L49.582,60.922z"/>
<path d="M510.736,117.762c1.353-2.021,1.263-4.166,1.263-6.432c0-2.596,0.088-105.228-1.263-107.25
	c-1.425-2.134-3.814-3.303-6.349-3.336c-0.457-0.006-101.342-0.082-105.241,0c-4.078,0.086-7.502,3.351-7.501,7.503v36.031
	c0,4.142,3.358,7.5,7.5,7.5c4.142,0,7.5-3.358,7.5-7.5V26.351l34.571,34.571l-34.571,34.571V77.771c0-4.142-3.358-7.5-7.5-7.5
	c-4.142,0-7.5,3.358-7.5,7.5v35.824c-0.001,4.157,3.427,7.42,7.513,7.503c0.345,0.007,105.166,0.12,106.51-0.099
	C507.724,120.665,509.577,119.496,510.736,117.762z M462.429,60.922L497,26.351v69.142L462.429,60.922z M417.252,15.745h69.142
	l-34.571,34.571L417.252,15.745z M486.393,106.099h-69.142l34.571-34.571L486.393,106.099z"/>
<path d="M244.049,90.178c1.919,0,3.839-0.732,5.303-2.197l46.403-46.403c2.929-2.929,2.929-7.678,0-10.606
	c-2.929-2.929-7.678-2.929-10.606,0l-41.1,41.1l-17.188-17.188c-2.929-2.929-7.678-2.929-10.606,0
	c-2.929,2.929-2.929,7.678,0,10.606l22.49,22.49C240.211,89.446,242.13,90.178,244.049,90.178z"/>
<path d="M453.369,145.116c-4.039-0.931-8.062,1.592-8.99,5.628c-0.107,0.467-11.322,46.907-62.984,69.573
	c-3.793,1.665-5.519,6.088-3.855,9.881c1.234,2.813,3.985,4.489,6.872,4.489c1.006,0,2.029-0.204,3.009-0.634
	c58.492-25.663,71.069-77.744,71.576-79.948C459.926,150.069,457.406,146.044,453.369,145.116z"/>
<path d="M130.616,220.318c-51.301-22.508-62.511-67.572-62.987-69.586c-0.934-4.03-4.955-6.544-8.987-5.616
	c-4.037,0.928-6.557,4.953-5.628,8.99c0.507,2.205,13.085,54.286,71.576,79.948c0.98,0.43,2.003,0.634,3.009,0.634
	c2.886,0,5.638-1.676,6.872-4.489C136.135,226.406,134.409,221.982,130.616,220.318z"/>
<path d="M379.795,446.425h-6.802V257.119c0-14.8-12.041-26.839-26.839-26.839h-0.13c-4.19,0-8.22,0.964-11.83,2.735v-1.455
	c0-16.967-13.808-30.769-30.779-30.769c-5.689,0-11.138,1.529-15.873,4.389c-1.292-15.848-14.603-28.348-30.777-28.348h-1.87
	c-5.803,0-11.237,1.609-15.88,4.404v-60.132h99.667c10.168,0,18.44-8.272,18.44-18.44V19.175c0-10.162-8.272-18.43-18.44-18.43
	H173.327c-10.168,0-18.44,8.268-18.44,18.43v83.488c0,8.336,5.564,15.389,13.17,17.663v34.246c0,4.142,3.358,7.5,7.5,7.5
	s7.5-3.358,7.5-7.5v-45.449c0-5.471,2.132-10.615,6.003-14.487c3.872-3.871,9.013-6.003,14.477-6.003
	c11.292,0,20.479,9.192,20.479,20.489v98.587c0,4.142,3.358,7.5,7.5,7.5s7.5-3.358,7.5-7.5c0-8.756,7.124-15.88,15.88-15.88h1.87
	c8.756,0,15.88,7.124,15.88,15.88v23.849c0,4.142,3.358,7.5,7.5,7.5c4.142,0,7.5-3.358,7.5-7.5c0-4.213,1.642-8.175,4.629-11.163
	c2.964-2.971,6.92-4.607,11.141-4.607c8.701,0,15.78,7.074,15.78,15.77v16.03c0,3.321,2.185,6.247,5.369,7.191l2.16,0.64
	c3.449,1.022,7.134-0.547,8.789-3.739c2.047-3.949,6.076-6.402,10.512-6.402h0.13c6.529,0,11.84,5.312,11.84,11.84v189.306H227.576
	v-3.131c0-0.154-0.005-0.309-0.014-0.463c-1.004-16.217-13.459-33.389-37.015-51.036c-24.632-18.472-39.338-48.105-39.338-79.268
	v-17.66c0-8.458,6.881-15.34,15.34-15.34h1.514v38.98c0,4.142,3.358,7.5,7.5,7.5s7.5-3.358,7.5-7.5V272.03
	c0-0.029-0.004-0.058-0.004-0.087v-83.822c0-4.142-3.358-7.5-7.5-7.5s-7.5,3.358-7.5,7.5v76.408h-1.51
	c-16.729,0-30.339,13.61-30.339,30.339v17.66c0,35.859,16.95,69.978,45.342,91.27c19.477,14.591,30.198,28.328,31.025,39.747v2.88
	h-5.292c-4.142,0-7.5,3.358-7.5,7.5v49.869c0,4.142,3.358,7.5,7.5,7.5h102.288c2.055,0,4.02-0.843,5.436-2.333
	c1.416-1.489,2.159-3.495,2.055-5.547c-0.006-0.125-0.016-0.25-0.027-0.374c-0.336-3.967-3.725-7.006-7.758-6.856
	c-0.348,0.013-0.69,0.05-1.024,0.109h-93.47v-34.869h157.51v34.869h-27.87c-0.516-0.091-1.051-0.128-1.598-0.109
	c-4.022,0.153-7.184,3.446-7.215,7.43c-0.002,0.126-0.002,0.259,0,0.369c0.103,4.067,3.429,7.31,7.498,7.31h36.685
	c4.142,0,7.5-3.358,7.5-7.5v-49.869C387.295,449.783,383.937,446.425,379.795,446.425z M203.536,73.633
	c-9.471,0-18.378,3.692-25.082,10.397c-3.952,3.952-6.847,8.674-8.567,13.823V19.175c0-1.891,1.543-3.43,3.44-3.43h165.356
	c1.897,0,3.44,1.539,3.44,3.43v83.488c0,1.897-1.543,3.44-3.44,3.44h-99.805C237.34,87.943,222.082,73.633,203.536,73.633z"/>
<path d="M220.352,474.961v4.47c0,4.142,3.358,7.5,7.5,7.5s7.5-3.358,7.5-7.5v-4.47c0-4.142-3.358-7.5-7.5-7.5
	S220.352,470.818,220.352,474.961z"/>
<g>
</g>
<g>
</g>
<g>
</g>
<g>
</g>
<g>
</g>
<g>
</g>
<g>
</g>
<g>
</g>
<g>
</g>
<g>
</g>
<g>
</g>
<g>
</g>
<g>
</g>
<g>
</g>
<g>
</g>
</svg>
