<svg id="filled_outline" height="512" viewBox="0 0 512 512" width="512" xmlns="http://www.w3.org/2000/svg" data-name="filled outline"><path d="m168 400h64l24 24h144l40-40v-104h32v-64h-112v-24a54.626 54.626 0 0 0 16-38.627v-41.273a24.1 24.1 0 0 0 -24.1-24.1h-11.628a23.374 23.374 0 0 0 -23.139 20.069l-2.073 14.514a54.633 54.633 0 0 1 -19.953 34.932l-23.107 18.485-32 64h-72z" fill="#fdb3bb"/><path d="m440 248h32v32h-32z" fill="#fda0aa"/><path d="m256 392-24-24h-64v32h64l24 24h144l40-40v-32l-40 40z" fill="#fda0aa"/><path d="m24 240h168v160h-168z" fill="#3735c7"/><path d="m200 240v64l-48 48h-32v-112z" fill="#b6b6ff"/><path d="m144 288h16v16h-16z" fill="#a9edff"/><path d="m342.1 266.852 9.677 20.618a6.741 6.741 0 0 0 5.082 3.8l22.178 3.388a6.738 6.738 0 0 1 3.805 11.367l-16.467 16.875a6.736 6.736 0 0 0 -1.828 5.79l3.829 23.471a6.737 6.737 0 0 1 -9.91 6.981l-19.206-10.615a6.735 6.735 0 0 0 -6.52 0l-19.206 10.616a6.737 6.737 0 0 1 -9.91-6.981l3.829-23.471a6.736 6.736 0 0 0 -1.828-5.79l-16.467-16.878a6.738 6.738 0 0 1 3.805-11.367l22.178-3.388a6.741 6.741 0 0 0 5.082-3.8l9.677-20.618a6.739 6.739 0 0 1 12.2.002z" fill="#f9e083"/><g fill="#fb3260"><path d="m16 168h16v16h-16z"/><path d="m32 184h16v16h-16z"/><path d="m32 152h16v16h-16z"/><path d="m48 168h16v16h-16z"/><path d="m48 440h16v16h-16z"/><path d="m64 456h16v16h-16z"/><path d="m64 424h16v16h-16z"/><path d="m80 440h16v16h-16z"/><path d="m192 40h16v16h-16z"/><path d="m208 56h16v16h-16z"/><path d="m208 24h16v16h-16z"/><path d="m224 40h16v16h-16z"/><path d="m448 120h16v16h-16z"/><path d="m464 136h16v16h-16z"/><path d="m464 104h16v16h-16z"/><path d="m480 120h16v16h-16z"/><path d="m432 464h16v16h-16z"/><path d="m448 480h16v16h-16z"/><path d="m448 448h16v16h-16z"/><path d="m464 464h16v16h-16z"/></g><path d="m365.427 334.083a48 48 0 0 1 -61.176-41.151l-11.288 1.724a6.738 6.738 0 0 0 -3.805 11.367l16.467 16.877a6.739 6.739 0 0 1 1.828 5.791l-3.829 23.471a6.738 6.738 0 0 0 9.91 6.982l19.206-10.617a6.735 6.735 0 0 1 6.52 0l19.206 10.617a6.738 6.738 0 0 0 9.91-6.982z" fill="#fc8c25"/><path d="m72 248h120v52.687l-45.657 45.656 11.314 11.314 48-48a8 8 0 0 0 2.343-5.657v-56h32a8 8 0 0 0 7.155-4.422l31.215-62.429 21.73-17.387a62.406 62.406 0 0 0 22.875-40.048l2.073-14.514a15.451 15.451 0 0 1 15.224-13.2h11.628a16.118 16.118 0 0 1 16.1 16.1v41.273a46.326 46.326 0 0 1 -13.657 32.971 8 8 0 0 0 -2.343 5.656v24a8 8 0 0 0 8 8h104v48h-24a8 8 0 0 0 -8 8v100.687l-35.313 35.313h-137.374l-21.656-21.657a8 8 0 0 0 -5.657-2.343h-32v-56h-16v56h-56v-128h-16v128h-32v16h148.687l21.656 21.657a8 8 0 0 0 5.657 2.343h144a8 8 0 0 0 5.657-2.343l40-40a8 8 0 0 0 2.343-5.657v-96h24a8 8 0 0 0 8-8v-64a8 8 0 0 0 -8-8h-104v-12.814a62.173 62.173 0 0 0 16-41.813v-41.273a32.135 32.135 0 0 0 -32.1-32.1h-11.628a31.529 31.529 0 0 0 -31.059 26.938l-2.073 14.514a46.461 46.461 0 0 1 -17.031 29.816l-23.109 18.485a8.012 8.012 0 0 0 -2.157 2.669l-29.787 59.578h-163.056z"/><path d="m144 288h16v16h-16z"/><path d="m40 232h16v16h-16z"/><path d="m392 296.639a14.68 14.68 0 0 0 -11.749-9.891l-21.513-3.287-9.392-20.009a14.739 14.739 0 0 0 -26.682 0l-9.392 20.009-21.512 3.287a14.738 14.738 0 0 0 -8.323 24.861l16.023 16.422-3.726 22.842a14.738 14.738 0 0 0 21.666 15.272l18.6-10.28 18.6 10.281a14.738 14.738 0 0 0 21.675-15.273l-3.726-22.842 16.023-16.422a14.676 14.676 0 0 0 3.428-14.97zm-31.347 20.675a14.8 14.8 0 0 0 -4 12.665l3.41 20.906-16.932-9.361a14.663 14.663 0 0 0 -14.26 0l-16.932 9.36 3.41-20.906a14.8 14.8 0 0 0 -4-12.666l-14.749-15.119 19.748-3.017a14.706 14.706 0 0 0 11.117-8.307l8.535-18.184 8.535 18.183a14.709 14.709 0 0 0 11.116 8.308l19.75 3.017z"/><path d="m16 168h16v16h-16z"/><path d="m32 184h16v16h-16z"/><path d="m32 152h16v16h-16z"/><path d="m48 168h16v16h-16z"/><path d="m48 440h16v16h-16z"/><path d="m64 456h16v16h-16z"/><path d="m64 424h16v16h-16z"/><path d="m80 440h16v16h-16z"/><path d="m192 40h16v16h-16z"/><path d="m208 56h16v16h-16z"/><path d="m208 24h16v16h-16z"/><path d="m224 40h16v16h-16z"/><path d="m448 120h16v16h-16z"/><path d="m464 136h16v16h-16z"/><path d="m464 104h16v16h-16z"/><path d="m480 120h16v16h-16z"/><path d="m432 464h16v16h-16z"/><path d="m448 480h16v16h-16z"/><path d="m448 448h16v16h-16z"/><path d="m464 464h16v16h-16z"/></svg>